<svg xmlns="http://www.w3.org/2000/svg" width="400" height="400" viewBox="0 0 400 400">
  <defs>
    <pattern id="circuit" patternUnits="userSpaceOnUse" width="100" height="100">
      <path d="M10 10h80v80H10z" fill="none" stroke="#F59E0B" stroke-width="0.5" stroke-opacity="0.2"/>
      <circle cx="10" cy="10" r="3" fill="#F59E0B" fill-opacity="0.2"/>
      <circle cx="90" cy="10" r="3" fill="#F59E0B" fill-opacity="0.2"/>
      <circle cx="10" cy="90" r="3" fill="#F59E0B" fill-opacity="0.2"/>
      <circle cx="90" cy="90" r="3" fill="#F59E0B" fill-opacity="0.2"/>
      <path d="M10 10h20v20H10z" fill="none" stroke="#F59E0B" stroke-width="0.5" stroke-opacity="0.2"/>
      <path d="M70 10h20v20H70z" fill="none" stroke="#F59E0B" stroke-width="0.5" stroke-opacity="0.2"/>
      <path d="M10 70h20v20H10z" fill="none" stroke="#F59E0B" stroke-width="0.5" stroke-opacity="0.2"/>
      <path d="M70 70h20v20H70z" fill="none" stroke="#F59E0B" stroke-width="0.5" stroke-opacity="0.2"/>
      <path d="M40 40h20v20H40z" fill="none" stroke="#F59E0B" stroke-width="0.5" stroke-opacity="0.2"/>
      <path d="M10 50h30" fill="none" stroke="#F59E0B" stroke-width="0.5" stroke-opacity="0.2"/>
      <path d="M60 50h30" fill="none" stroke="#F59E0B" stroke-width="0.5" stroke-opacity="0.2"/>
      <path d="M50 10v30" fill="none" stroke="#F59E0B" stroke-width="0.5" stroke-opacity="0.2"/>
      <path d="M50 60v30" fill="none" stroke="#F59E0B" stroke-width="0.5" stroke-opacity="0.2"/>
    </pattern>
  </defs>
  <rect width="400" height="400" fill="url(#circuit)"/>
</svg>
