<svg xmlns="http://www.w3.org/2000/svg" viewBox="0 0 32 32">
  <circle cx="16" cy="16" r="16" fill="#8247E5" fill-opacity="0.8"/>
  <path d="M21 12.2c-.4-.2-.9-.2-1.3 0l-3.5 2-2 1.1-3.5 2c-.4.2-.9.2-1.3 0l-2.7-1.5c-.4-.2-.7-.6-.7-1.1V12c0-.5.3-.9.7-1.1l2.7-1.5c.4-.2.9-.2 1.3 0l2.7 1.5c.4.2.7.6.7 1.1v2l2-1.1v-2c0-.5-.3-.9-.7-1.1l-4.7-2.6c-.4-.2-.9-.2-1.3 0L6.7 9.8c-.4.2-.7.6-.7 1.1v5.2c0 .5.3.9.7 1.1l4.7 2.6c.4.2.9.2 1.3 0l3.5-2 2-1.1 3.5-2c.4-.2.9-.2 1.3 0l2.7 1.5c.4.2.7.6.7 1.1v2.7c0 .5-.3.9-.7 1.1l-2.7 1.5c-.4.2-.9.2-1.3 0l-2.7-1.5c-.4-.2-.7-.6-.7-1.1v-2l-2 1.1v2c0 .5.3.9.7 1.1l4.7 2.6c.4.2.9.2 1.3 0l4.7-2.6c.4-.2.7-.6.7-1.1v-5.2c0-.5-.3-.9-.7-1.1L21 12.2z" fill="#8247E5"/>
</svg>
